<svg version="1.1" id="Layer_2_1_" xmlns:x="ns_extend;" xmlns:i="ns_ai;" xmlns:graph="ns_graphs;" xmlns="http://www.w3.org/2000/svg" xmlns:xlink="http://www.w3.org/1999/xlink" x="0px" y="0px" viewBox="0 0 260.5 242" style="enable-background:new 0 0 260.5 242;" xml:space="preserve">
 <style type="text/css">
  .st0{fill:#007DBA;}
 </style>
 <metadata>
  <sfw xmlns="ns_sfw;">
   <slices>
   </slices>
   <sliceSourceBounds bottomLeftOrigin="true" height="242" width="260.5" x="510.6" y="0">
   </sliceSourceBounds>
   <optimizationSettings>
    <targetSettings fileFormat="PNG24Format" targetSettingsID="0">
     <PNG24Format filtered="false" interlaced="false" matteColor="#FFFFFF" noMatteColor="false" transparency="true">
     </PNG24Format>
    </targetSettings>
   </optimizationSettings>
  </sfw>
 </metadata>
 <g>
  <path class="st0" d="M130.3,70.8c11.5,0,24.5,9.9,24.6,23.5c0,7.7-2.5,13.6-6.1,19c-2.4,3.5-4.2,7.5-4.9,10.4
		c-0.8,3.3-2.5,11.1,7.2,11.3c6.3,0.1,21.8-5.3,34.4-20.4c9.6-12.1,15.4-27.4,15.4-44c0-39-31.6-70.6-70.6-70.6l0,0
		c-39,0-70.6,31.6-70.6,70.6c0,16.7,5.7,32,15.4,44c12.5,15,28.1,20.5,34.4,20.4c9.7-0.2,8-8,7.2-11.3c-0.7-2.9-2.5-6.8-4.8-10.4
		c-3.6-5.4-6.1-11.3-6.1-19C105.8,80.7,118.8,70.8,130.3,70.8L130.3,70.8z M255.1,142.1c-2.9-2.4-8-5.9-18.4-7.4
		c-14.4-2.2-27.3,1.2-35.1,4.3c-10.2,4-22.8,13.1-31.5,25c-9.1,12.5-13.9,31.5-9.4,51.2c1.3,5.6,2.7,8.7,4.7,12.6
		c2.8,5.3,9.9,12.7,16.2,14c5,1,8.8-1.8,10.7-4c12.6-14.5,60.5-70.7,65.6-77.9C263.1,152.8,259.8,146,255.1,142.1z M59,139
		c-7.8-3.1-20.7-6.5-35.1-4.3c-10.4,1.6-15.5,5.1-18.4,7.4c-4.7,3.9-8,10.7-2.9,17.8c5.2,7.2,53,63.4,65.6,77.9
		c1.8,2.1,5.7,5,10.7,4c6.3-1.3,13.4-8.7,16.2-14c2-3.9,3.4-7,4.7-12.6c4.6-19.7-0.2-38.7-9.4-51.2C81.8,152.1,69.2,143,59,139z">
  </path>
 </g>
</svg>