<svg version="1.2" xmlns="http://www.w3.org/2000/svg" viewBox="0 0 1552 1552" width="1552" height="1552">
	<title>Bank_of_China-svg</title>
	<defs>
		<clipPath clipPathUnits="userSpaceOnUse" id="cp1">
			<path d="m0 0.51h5476.65v1551.01h-5476.65z"/>
		</clipPath>
	</defs>
	<style>
		.s0 { fill: #b10a32 } 
	</style>
	<g id="Layer">
		<g id="Clip-Path" clip-path="url(#cp1)">
			<path id="Layer" fill-rule="evenodd" class="s0" d="m775.6 1551.5c-428.9 0-775.6-346.7-775.6-775.5 0-428.8 346.7-775.5 775.6-775.5 428.9 0 775.6 346.7 775.6 775.5 0 428.8-346.7 775.5-775.6 775.5zm196.9-1091.5c95.4 0 171.3 69.6 171.3 164.9v298.5c0 95.3-70 166.8-165.4 166.8h-114.2l0.5 288.5c294.3-43 519.8-296.7 519.8-602.8 0-306.1-226.1-559.4-520.3-602.3v286.6zm-568.5 164.8c0-95.3 58-165.3 153.2-165.3l126.9-0.4v-284.9c-292.8 44.2-517.4 296.6-517.4 601.7 0 305.1 224.6 558.1 517.4 602.2l-0.5-285.9-106.1-0.1c-95.3 0-173.5-73.5-173.5-168.7zm559.2 300.4c0 0 6-2.1 8.9-4.6 3.2-2.6 6.4-10 6.4-10v-265.8c0 0-3.2-12.1-9.1-15.3-6.7-3.7-12.5-2.8-12.5-2.8h-366.2c0 0-8.7 0.2-13.4 5.5-5 5.5-4.6 14.7-4.6 14.7v259c0 0-1.1 3.8 3 11 4.3 7.4 12.7 8.3 12.7 8.3l277.9 0.1z"/>
		</g>
	</g>
</svg>