<svg height="172.589785" viewBox="0 0 94 28" width="579.408565" xmlns="http://www.w3.org/2000/svg"><g fill="none" fill-rule="evenodd"><path d="m4.45698 22.731h17.88336v-18.064h-17.88336z" fill="#fff"/><path d="m21.75624 22.164-6.48945-5.497s-.87912-.867-1.86516-.867c-.99594 0-1.87506.867-1.87506.867l-6.48747 5.497-.02079-.019 5.44302-6.555s.85635-.885.85635-1.893c0-.998-.85635-1.884-.85635-1.884l-5.44302-6.56.02079-.023 6.48747 5.503s.87912.869 1.87506.869c.98604 0 1.86516-.869 1.86516-.869l6.48945-5.503.02673.029-5.45391 6.554s-.85041.886-.85041 1.884c0 1.008.85041 1.893.85041 1.893l5.45391 6.553zm3.03633-8.467v-.002c0-1.777.07128-3.37 1.3761-6.168.37719-.814 1.21176-2-.01782-3.384-.99891-1.006-2.13345-.841-2.89773-.396.43956-.772.60291-1.923-.39501-2.933-1.36917-1.238-2.54727-.397-3.34917-.014-2.77299 1.321-4.34214 1.394-6.10731 1.394-1.7721 0-3.34323-.073-6.11028-1.394-.80586-.383-1.98891-1.224-3.35412.014-.99792 1.01-.82962 2.161-.39006 2.933-.76626-.447-1.90278-.61-2.90268.396-1.22859 1.384-.39006 2.57-.0198 3.384 1.31274 2.798 1.38501 4.391 1.38501 6.17 0 1.784-.07227 3.381-1.38501 6.177-.37026.808-1.20879 2.002.0198 3.385.9999 1.003 2.13642.837 2.90268.397-.43956.774-.60786 1.922.39006 2.922 1.36521 1.247 2.54826.404 3.35412.021 2.76903-1.32 4.33818-1.39 6.11028-1.39 1.76517 0 3.33432.07 6.10632 1.39.80289.383 1.98099 1.226 3.35016-.021.99792-1 .83061-2.148.39303-2.922.76626.44 1.9008.612 2.89971-.397 1.22958-1.383.39501-2.577.01782-3.385-1.30482-2.8-1.3761-4.393-1.3761-6.177z" fill="#f33"/><path d="m45.96471 24.186c2.22453-.805 4.97772-4.639 4.52133-10.677-.43956-5.841-2.64429-10.43-8.51499-10.861 0 0-1.11177-.081-2.04336-.085-.99891-.007-1.21275-.041-1.287 1.037-.12771 2.017-.16434 17.726-.03663 19.993.01485.311.04851 1.057 1.32957 1.188 2.34234.229 4.27977.045 6.03108-.595zm-2.27106-22.533c4.96782-.023 11.50479 3.417 11.47905 12.011-.01683 7.475-5.36085 12.079-10.296 12.079l-12.53241.003.01584-.267c.70488-.127 1.49688-.571 1.62855-1.045.41481-1.801.32076-18.279.0693-20.993-.0792-.849-.7425-1.396-1.54737-1.53l-.02475-.258s10.09503.006 11.20779 0zm27.47745 18.185c.099-5.177-3.65805-6.55-7.54875-6.765-.08118-.006-.05049-.2.0099-.21 1.26423-.051 6.29046-.639 6.08652-5.489-.20394-4.726-3.75309-4.832-5.05098-4.852-1.0593-.014-1.28997-.014-1.73745.008-.75339.033-.94149.089-.93753.915 0 .105-.16533 8.514-.26433 14.426-.04653 3.213-.0594 5.687-.0594 5.687.01881.589-.05346 1.186 1.38204 1.254 1.48203.073 3.39273.135 4.73022-.152 1.22463-.264 3.3066-1.17 3.38976-4.822zm-1.53747-6.96c5.84397 1.463 6.19641 5.724 6.11523 6.922-.2673 5.335-4.74606 5.946-6.54984 5.946h-13.78674l.01584-.269c1.00188-.139 1.75329-.693 1.75329-2.471l.08118-18.373c.02277-1.992-.49599-2.601-1.58796-2.731l-.02475-.249h10.4247c1.91367 0 7.67646-.384 8.1675 4.967.39006 4.282-4.26789 6.071-4.60845 6.258zm22.47993-11.152.23661-.002.08118 4.293-.26037-.002c-.41877-1.748-2.08197-3.396-5.41728-3.568-3.93921-.209-5.64201 2.162-5.66775 4.406-.02277 2.982 2.28096 3.598 5.69349 4.439 1.60776.397 7.56558 1.182 7.0884 7.944-.33066 4.723-4.36788 6.969-10.08414 6.791 0 0-2.37501-.08-5.6925-1.009-.6138-.176-.77715.033-1.02366.49l-.27126.014.00891-4.629.26235.013c.13068.469.16731 1.342 1.00881 2.082.61281.546 2.05326 1.894 5.21235 1.929 3.10068.042 5.67072-1.28 6.01524-4.794.09405-.945-.00495-3.108-2.09583-4.094-1.63548-.772-6.17661-1.281-8.37738-3.23 0 0-2.61063-1.837-2.19879-5.266.57816-4.846 4.58271-6.058 8.18037-6.132 0 0 3.21849-.032 5.78259.637 0 0 .62766.172 1.14741-.028.21087-.071.30987-.204.37125-.284z" fill="#000"/></g></svg>