<?xml version="1.0" encoding="UTF-8" standalone="no"?>
<svg
   xmlns:dc="http://purl.org/dc/elements/1.1/"
   xmlns:cc="http://creativecommons.org/ns#"
   xmlns:rdf="http://www.w3.org/1999/02/22-rdf-syntax-ns#"
   xmlns:svg="http://www.w3.org/2000/svg"
   xmlns="http://www.w3.org/2000/svg"
   xmlns:sodipodi="http://sodipodi.sourceforge.net/DTD/sodipodi-0.dtd"
   xmlns:inkscape="http://www.inkscape.org/namespaces/inkscape"
   version="1.1"
   id="Layer_1"
   x="0px"
   y="0px"
   viewBox="0 0 271.92944 111.48727"
   xml:space="preserve"
   sodipodi:docname="Nubank_logo.svg"
   width="271.92944"
   height="111.48727"
   inkscape:version="1.0.2 (e86c870879, 2021-01-15, custom)"><metadata
   id="metadata30"><rdf:RDF><cc:Work
       rdf:about=""><dc:format>image/svg+xml</dc:format><dc:type
         rdf:resource="http://purl.org/dc/dcmitype/StillImage" /><dc:title></dc:title></cc:Work></rdf:RDF></metadata><defs
   id="defs28" /><sodipodi:namedview
   pagecolor="#ffffff"
   bordercolor="#666666"
   borderopacity="1"
   objecttolerance="10"
   gridtolerance="10"
   guidetolerance="10"
   inkscape:pageopacity="0"
   inkscape:pageshadow="2"
   inkscape:window-width="1350"
   inkscape:window-height="728"
   id="namedview26"
   showgrid="false"
   fit-margin-top="0"
   fit-margin-left="0"
   fit-margin-right="0"
   fit-margin-bottom="0"
   inkscape:zoom="0.86511003"
   inkscape:cx="301.55"
   inkscape:cy="123.25"
   inkscape:window-x="0"
   inkscape:window-y="0"
   inkscape:window-maximized="0"
   inkscape:current-layer="Layer_1" />
<style
   type="text/css"
   id="style21">
	.st0{fill:#8A05BE;}
</style>
<path
   class="st0"
   d="m 174.37059,89.55018 c -3.46849,0 -6.75681,-0.90091 -8.7388,-2.02705 -0.0901,-0.045 -0.18018,-0.18018 -0.18018,-0.27027 v -41.712 c 0,-0.18018 0.13513,-0.31532 0.31532,-0.31532 h 4.18921 c 0.18019,0 0.31532,0.13514 0.31532,0.31532 v 14.27938 c 1.71172,-0.90091 3.78381,-1.35136 6.03608,-1.35136 7.02708,0 11.75684,5.81085 11.75684,14.91001 0.045,9.68475 -4.72976,16.17129 -13.69379,16.17129 z m 0.72072,-28.10831 c -1.71172,0 -3.24326,0.40541 -4.59462,1.03604 -0.13514,0.045 -0.18018,0.18019 -0.18018,0.31532 v 22.65782 c 0,0.13513 0.0901,0.27027 0.18018,0.31532 1.12613,0.45045 2.61263,0.67568 4.05408,0.67568 6.17121,0 8.64871,-5.22527 8.64871,-12.79289 0,-7.52257 -2.92795,-12.20729 -8.10817,-12.20729 z m 28.37858,28.10831 c -7.20726,0 -11.44152,-3.10813 -11.44152,-9.09917 0,-7.2523 7.11717,-10.04511 16.84696,-10.99106 v -1.84686 c 0,-4.14418 -2.25226,-5.94599 -6.39644,-5.94599 -2.47749,0 -5.18021,0.72072 -7.20725,1.75677 -0.18019,0.0901 -0.36037,0 -0.45046,-0.18018 l -0.94595,-2.38741 c -0.0451,-0.18018 0,-0.36036 0.13514,-0.40541 2.47749,-1.21622 5.7658,-2.02704 8.87393,-2.02704 6.53158,0 10.54062,3.06309 10.54062,9.77485 v 19.09923 c 0,0.13513 -0.0451,0.22522 -0.18019,0.31532 -2.34235,1.12613 -5.85589,1.93695 -9.77484,1.93695 z m 5.40544,-17.52265 c -7.65771,0.90091 -12.16224,3.01804 -12.16224,8.28835 0,4.05408 2.52254,6.35139 7.20726,6.35139 1.80181,0 3.60362,-0.36036 4.7748,-0.9009 0.13514,-0.045 0.18018,-0.18019 0.18018,-0.31532 z m 29.05426,16.9821 c -0.18018,0 -0.31532,-0.13513 -0.31532,-0.31532 V 68.28877 c 0,-4.50454 -1.84686,-6.75681 -6.7568,-6.75681 -1.982,0 -3.60363,0.31532 -5.09013,0.90091 -0.13513,0.045 -0.22522,0.18018 -0.22522,0.31532 v 25.94612 c 0,0.18019 -0.13514,0.31532 -0.31532,0.31532 h -4.23426 c -0.18018,0 -0.31532,-0.13513 -0.31532,-0.31532 V 60.72115 c 0,-0.13514 0.0901,-0.27028 0.18018,-0.31532 2.74777,-1.21623 6.3514,-2.02704 10.00007,-2.02704 8.10817,0 11.66675,3.51353 11.66675,9.86493 v 20.40555 c 0,0.18018 -0.13514,0.31532 -0.31532,0.31532 h -4.27931 z m 28.64885,0 c -0.0901,0 -0.18018,-0.045 -0.27027,-0.13513 L 254.59638,73.64916 h -0.0901 v 15.00011 c 0,0.18018 -0.13513,0.31532 -0.31531,0.31532 h -4.14418 c -0.18018,0 -0.31531,-0.13514 -0.31531,-0.31532 V 45.49581 c 0,-0.18018 0.13513,-0.31531 0.31531,-0.31531 h 4.14418 c 0.18018,0 0.31531,0.13513 0.31531,0.31531 v 27.52272 h 0.0901 l 11.03611,-14.00911 c 0.045,-0.0901 0.13513,-0.13513 0.27027,-0.13513 h 4.54958 c 0.27027,0 0.40541,0.31531 0.27027,0.54054 l -11.57665,13.73883 12.70279,15.27038 c 0.18018,0.22523 0.045,0.54055 -0.27027,0.54055 h -5.00004 z M 70.76626,29.72994 C 70.76626,11.30639 50.13549,0 35.31556,0 25.40558,0 19.23437,4.8649 19.23437,12.65775 v 5.00003 H 15.04515 C 7.7478,17.65778 0,25.40558 0,32.74798 v 55.94633 c 0,2.88291 2.34236,5.22527 5.22526,5.22527 h 13.6037 v 0 c 0.0901,0 0.18018,0 0.22523,-0.045 2.79281,-0.13514 5.00003,-2.43245 5.00003,-5.22526 0,0 0,-54.00939 0,-66.17164 h 11.35143 c 6.21626,0 11.30639,5.09013 11.30639,11.30639 v 54.86525 c 0,2.8829 2.34236,5.22526 5.22526,5.22526 H 65.541 c 2.8829,0 5.22526,-2.34236 5.22526,-5.22526 0.0451,-24.3245 0,-58.91933 0,-58.91933 z M 6.17121,89.09972 c -0.72072,0 -1.30631,-0.58559 -1.30631,-1.30631 V 32.79302 c 0,-4.59462 5.63067,-10.27034 10.18025,-10.27034 h 4.18922 c 0,40.3156 0,60.94637 0,65.31577 0,0.72073 -0.58559,1.30632 -1.30632,1.30632 H 6.17121 Z m 59.7752,-1.26127 c 0,0.72073 -0.58559,1.26127 -1.30632,1.26127 H 52.83821 c -0.72073,0 -1.30632,-0.58559 -1.30632,-1.30631 V 33.82907 c 0,-8.91899 -7.2523,-16.17129 -16.17128,-16.17129 H 24.05422 v -5.00003 c 0,-2.92795 1.44145,-7.79285 11.26134,-7.79285 18.9641,0 30.5858,14.5046 30.5858,24.86504 0.0451,0 0.0451,33.78402 0.0451,58.10851 z m 80.31587,-70.27076 h -13.60369 c -2.88291,0 -5.22527,2.34236 -5.22527,5.22526 0,1.21623 0,52.74812 0,66.17164 h -11.30638 c -6.21626,0 -11.30639,-5.09013 -11.30639,-11.30639 V 22.79295 c 0,-2.8829 -2.34236,-5.22526 -5.22526,-5.22526 h -13.6037 c -2.8829,0 -5.22526,2.34236 -5.22526,5.22526 0,23.91909 0,58.96438 0,58.96438 0,18.42355 20.63078,29.72994 35.4507,29.72994 9.90998,0 16.08119,-4.8649 16.08119,-12.65775 v -5.00003 h 4.18922 c 7.29735,0 15.04515,-7.74781 15.04515,-15.0902 V 22.79295 c -0.045,-2.8829 -2.3874,-5.22526 -5.27031,-5.22526 z m -18.82896,81.30688 c 0,2.92794 -1.44145,7.79284 -11.26134,7.79284 -18.96409,0 -30.5858,-14.5046 -30.5858,-24.86504 0,0 -0.045,-33.60383 0,-58.10851 0,-0.72073 0.58559,-1.26127 1.30632,-1.26127 h 11.80188 c 0.72073,0 1.30632,0.58559 1.30632,1.30631 v 54.00939 c 0,8.91898 7.2523,16.17129 16.17128,16.17129 h 11.30639 z m 19.23437,-20.13528 c 0,4.59463 -5.63067,10.27034 -10.18025,10.27034 h -4.18922 c 0,-28.15335 0,-59.73015 0,-65.31577 0,-0.72073 0.58559,-1.26127 1.30632,-1.26127 h 8.28834 3.51354 c 0.72073,0 1.30632,0.58559 1.30632,1.30631 v 55.00039 z"
   id="path23"
   style="stroke-width:0.450454" />
</svg>
