<svg version="1.1" id="svg21746" inkscape:version="0.48.1 " xmlns:svg="http://www.w3.org/2000/svg" xmlns:sodipodi="http://sodipodi.sourceforge.net/DTD/sodipodi-0.dtd" xmlns:rdf="http://www.w3.org/1999/02/22-rdf-syntax-ns#" xmlns:dc="http://purl.org/dc/elements/1.1/" xmlns:cc="http://creativecommons.org/ns#" xmlns:inkscape="http://www.inkscape.org/namespaces/inkscape" xmlns="http://www.w3.org/2000/svg" xmlns:xlink="http://www.w3.org/1999/xlink" x="0px" y="0px" viewBox="40 -9.5 131 131" style="enable-background:new 40 -9.5 131 131;" xml:space="preserve">
 <style type="text/css">
  .st0{fill:#EE2722;}
 </style>
 <sodipodi:namedview bordercolor="#666666" pagecolor="#ffffff" showgrid="false" inkscape:cy="0.025419359" borderopacity="1.0" inkscape:cx="19.396472" id="base" fit-margin-top="0" fit-margin-left="0" inkscape:zoom="1" inkscape:current-layer="layer1" inkscape:window-y="-8" inkscape:window-maximized="1" inkscape:window-x="-8" inkscape:pageopacity="0.0" fit-margin-bottom="0" inkscape:document-units="px" inkscape:pageshadow="2" fit-margin-right="0" inkscape:window-width="1366" inkscape:window-height="706">
 </sodipodi:namedview>
 <g id="layer1" transform="translate(-282.87408,-511.75342)" inkscape:label="Layer 1" inkscape:groupmode="layer">
  <g id="g21693" transform="matrix(1.2892413,0,0,-1.2892413,-600.61151,1461.9351)">
   <g id="g114" transform="translate(704.34959,714.59241)">
    <path id="path116" inkscape:connector-curvature="0" class="st0" d="M74.4-43.6c1.7,1,3.4,2.2,4.9,3.4c1,0.7,1.9,1.7,2.7,2.7
				c3.9,4.6,6.3,10.2,6.3,16.5c0,14.1-11.4,25.5-25.5,25.5c-2.9,0-5.8-0.5-8.3-1.5L36.7,22.7c7.5,4.4,16.5,7.1,26,7.1
				c28.2,0,50.8-22.6,50.8-50.8c0-28-22.6-50.8-50.8-50.8C48.9-71.8,36.3-66.2,27-57h62.2l0.5,0.5l-65.6,2.7l-0.5,0.5h69.5l0.2,0.5
				l-72.7,3.4l-0.2,0.2h28.2C48.7-49.2,63-49.7,74.4-43.6 M16.6-42.4c-0.2,1-0.7,1.9-1.2,2.9h15.3l2.7-2.9H56l-4.9-5.1h-28
				C22.4-44.8,19.7-42.7,16.6-42.4 M14.9-37.8C12.9-32.4,12-26.9,12-21c0,3.4,0.2,6.6,1,9.7l24.6-8.8v-1c0-5.8,1.9-11.4,5.6-15.8
				h0.2c-2.2,3.9-3.4,8.3-3.4,12.9c0,1,0,1.9,0.2,2.9l26.3-9.2v-7.5H14.9z M66.4-20.5L46.2-7.2c2.4,2.9,5.6,5.1,9.2,6.6l10.9-10.9
				V-20.5z M66.4-29.3l-26,10c0.7,3.9,2.4,7.8,4.9,10.9l21.2-13.4V-29.3z M37.5-18.3L13.4-9.1c1.5,5.8,3.6,11.2,6.8,16L41.9-6.4
				C39.4-9.8,38-14,37.5-18.3 M43.1-5L21.9,9.1c3.4,4.6,7.5,8.8,12.4,11.9L52.5,2.3C48.9,0.6,45.5-1.8,43.1-5">
    </path>
   </g>
  </g>
 </g>
</svg>