<?xml version="1.0" encoding="utf-8"?>
<!-- Generator: Adobe Illustrator 27.7.0, SVG Export Plug-In . SVG Version: 6.00 Build 0)  -->
<svg version="1.1" id="Layer_1" xmlns="http://www.w3.org/2000/svg" xmlns:xlink="http://www.w3.org/1999/xlink" x="0px" y="0px"
	 viewBox="0 0 141.07 43.43" style="enable-background:new 0 0 141.07 43.43;" xml:space="preserve">
<style type="text/css">
	.st0{fill:#FFC20D;}
	.st1{fill:#0069F2;}
</style>
<g>
	<path class="st0" d="M110.36,7.43v23.04h-1.79c-1.49,0-2.69-1.21-2.69-2.69V6.5c0-1.58,1.25-2.02,1.9-2.02
		C108.74,4.48,110.36,5.3,110.36,7.43z"/>
	<path class="st1" d="M134.58,27.92l-24.19-21.9l-0.91-0.82c0.5,0.47,0.88,1.2,0.88,2.23v12.73l0,10.31v5.32
		c0,1.74,1.41,3.16,3.16,3.16h19.92c1.74,0,3.16-1.41,3.16-3.16v-2.16C136.59,29.98,136.59,29.93,134.58,27.92z M24.35,21.21
		c2.37-0.95,4.84-3.13,4.84-7.35c0-5.79-3.89-8.96-11.19-8.96H4.48v34.06h14.37c7.02,0,11.43-3.51,11.43-9.49
		C30.28,25.29,27.91,22.35,24.35,21.21z M10.95,10.65h6.48c1.82,0,3.19,0.33,4.1,0.99c0.87,0.63,1.29,1.56,1.29,2.83
		c0,1.28-0.42,2.22-1.29,2.86c-0.91,0.67-2.28,1.01-4.09,1.01h-6.48V10.65z M22.51,31.98c-0.92,0.79-2.3,1.2-3.99,1.2h-7.57v-8.45
		h7.57c3.31,0,5.29,1.57,5.29,4.2C23.81,30.2,23.36,31.25,22.51,31.98z M103.09,21.99c0-9.65-7.85-17.51-17.51-17.51
		c-9.65,0-17.51,7.85-17.51,17.51c0,9.65,7.86,17.51,17.51,17.51c2.93,0,5.7-0.72,8.13-2l3.67,3.67l3.8-3.8l-3.11-3.11
		C101.17,31.09,103.09,26.76,103.09,21.99z M93.43,29.62l-4.05-4.05l-3.8,3.8l3.12,3.12c-0.99,0.3-2.04,0.45-3.12,0.45
		c-6.04,0-10.95-4.91-10.95-10.95c0-6.04,4.91-10.95,10.95-10.95c6.04,0,10.95,4.91,10.95,10.95
		C96.53,24.95,95.35,27.64,93.43,29.62z M48.94,4.48c-9.65,0-17.51,7.85-17.51,17.51S39.29,39.5,48.94,39.5s17.51-7.85,17.51-17.51
		S58.6,4.48,48.94,4.48z M48.94,32.94C42.91,32.94,38,28.02,38,21.99s4.91-10.95,10.95-10.95c6.04,0,10.95,4.91,10.95,10.95
		S54.98,32.94,48.94,32.94z"/>
</g>
</svg>
